<svg width="120" height="123" viewBox="0 0 120 123" fill="none" xmlns="http://www.w3.org/2000/svg">
<g id="Group 12">
<rect id="Rectangle" width="120" height="123" rx="45" fill="#093F68"/>
<g id="road_trip 2">
<g id="road_trip">
<rect id="Rectangle_2" x="38.2058" y="39.7733" width="21.7351" height="9.90333" fill="#080C20"/>
<path id="Shape" fill-rule="evenodd" clip-rule="evenodd" d="M38.2059 50H59.9443C60.1253 50 60.272 49.8508 60.272 49.6667V39.7733C60.272 39.5892 60.1253 39.44 59.9443 39.44H38.2059C38.0249 39.44 37.8782 39.5892 37.8782 39.7733V49.6667C37.8782 49.8508 38.0249 50 38.2059 50ZM59.6166 49.3333H38.5336V40.1067H59.6166V49.3333Z" fill="#093F68"/>
<path id="Path" d="M96.9091 80.3834H23.6677V68.05C23.6684 66.8279 23.8136 65.6102 24.1003 64.4234C24.2791 63.7117 24.5058 63.0134 24.7787 62.3334L28.3215 53.5234L28.8721 52.1567C29.4737 50.6557 30.9064 49.6724 32.5001 49.6667H65.8664C66.9234 49.6667 67.9355 50.102 68.6718 50.8734L71.1986 53.51L79.8343 62.53C81.3577 64.1187 83.4467 65.0152 85.6286 65.0167H92.1832C93.9488 65.02 95.4289 66.3745 95.6178 68.16L96.0504 72.09L96.9091 80.3834Z" fill="#3EE9E5"/>
<path id="Shape_2" fill-rule="evenodd" clip-rule="evenodd" d="M23.6678 80.7167H96.9092C97.0037 80.7131 97.0921 80.6681 97.1517 80.5933C97.2142 80.5225 97.2441 80.4279 97.2336 80.3333L95.9555 68.1467C95.9132 67.717 95.7967 67.2984 95.6114 66.91C94.9865 65.5668 93.6574 64.7093 92.1964 64.7067H85.6418C83.5439 64.709 81.5344 63.8481 80.0703 62.32L68.9078 50.6533C68.1079 49.8197 67.0117 49.3488 65.8665 49.3467H32.5034C30.7811 49.3385 29.2257 50.3931 28.5707 52.0133L24.474 62.1933C24.1946 62.8927 23.9635 63.6111 23.7825 64.3433C23.4903 65.5565 23.3418 66.8009 23.3401 68.05V80.3833C23.3401 80.5674 23.4868 80.7167 23.6678 80.7167ZM96.5454 80.05H23.9956L24.0054 68.0633C24.0068 66.8693 24.1487 65.6797 24.4282 64.52C24.5992 63.8175 24.8182 63.1281 25.0836 62.4567L29.1934 52.28C29.7365 50.9061 31.0443 50.0044 32.5002 50H65.8665C66.8388 49.9995 67.7701 50.3986 68.449 51.1067L79.6082 62.7733C81.1931 64.4274 83.3677 65.3602 85.6385 65.36H92.1931C93.4017 65.3627 94.5011 66.0722 95.0182 67.1833C95.1701 67.5041 95.2665 67.8492 95.3033 68.2033L96.5454 80.05Z" fill="#093F68"/>
<path id="Path_2" d="M22.6388 78.1633H28.043V81.6667H22.6388C22.3059 81.6667 21.9866 81.5322 21.7512 81.2927C21.5158 81.0533 21.3835 80.7286 21.3835 80.39V79.44C21.3835 78.7349 21.9455 78.1633 22.6388 78.1633Z" fill="#3EE9E5"/>
<path id="Shape_3" fill-rule="evenodd" clip-rule="evenodd" d="M22.6387 82H28.0299C28.1191 82.0036 28.2059 81.9701 28.2702 81.9072C28.3345 81.8443 28.3708 81.7574 28.3708 81.6667V78.1634C28.3708 77.9793 28.224 77.83 28.043 77.83H22.6387C21.7658 77.8319 21.0591 78.5521 21.0591 79.44V80.39C21.0591 81.2779 21.7658 81.9982 22.6387 82ZM21.7145 79.44C21.7145 78.9203 22.1278 78.4985 22.6387 78.4967H27.7153V81.3334H22.6387C22.1278 81.3315 21.7145 80.9097 21.7145 80.39V79.44Z" fill="#093F68"/>
<path id="Path_3" d="M91.9702 78.1633H97.3614C98.0546 78.1633 98.6166 78.7349 98.6166 79.44V80.39C98.6166 80.7286 98.4844 81.0533 98.249 81.2927C98.0136 81.5322 97.6943 81.6667 97.3614 81.6667H91.9702V78.1633Z" fill="#3EE9E5"/>
<path id="Shape_4" fill-rule="evenodd" clip-rule="evenodd" d="M91.9701 82H97.3612C98.2342 81.9982 98.9409 81.2779 98.9409 80.39V79.44C98.9409 78.5521 98.2342 77.8319 97.3612 77.83H91.9701C91.7891 77.83 91.6423 77.9793 91.6423 78.1634V81.6667C91.6423 81.8508 91.7891 82 91.9701 82ZM97.3612 81.3334H92.2847L92.2978 78.4967H97.3612C97.8722 78.4985 98.2854 78.9203 98.2854 79.44V80.39C98.2854 80.9097 97.8722 81.3315 97.3612 81.3334Z" fill="#093F68"/>
<ellipse id="Oval" cx="84.9534" cy="81.1566" rx="8.34403" ry="8.48667" fill="#080C20"/>
<path id="Shape_5" fill-rule="evenodd" clip-rule="evenodd" d="M76.9415 84.5278C78.2836 87.824 81.4458 89.9733 84.9535 89.9733C89.7393 89.9678 93.6181 86.0242 93.6253 81.1567C93.6266 77.589 91.5146 74.3719 88.2743 73.0057C85.034 71.6394 81.3036 72.3932 78.8228 74.9155C76.342 77.4377 75.5995 81.2316 76.9415 84.5278ZM77.5474 78.0365C78.7882 74.9898 81.7112 73.0033 84.9535 73.0033V73C89.3806 73.0037 92.968 76.6539 92.9698 81.1567C92.9698 84.4544 91.0167 87.4274 88.0212 88.6894C85.0257 89.9513 81.5778 89.2538 79.2851 86.9219C76.9925 84.5901 76.3066 81.0832 77.5474 78.0365Z" fill="#093F68"/>
<ellipse id="Oval_2" cx="84.9534" cy="81.1567" rx="4.0442" ry="4.11333" fill="#093F68"/>
<path id="Shape_6" fill-rule="evenodd" clip-rule="evenodd" d="M80.9142 82.8583C81.5909 84.5199 83.1851 85.6033 84.9534 85.6033C87.3664 85.5996 89.3217 83.6109 89.3253 81.1566C89.3253 79.3581 88.2601 77.7367 86.6264 77.0485C84.9927 76.3602 83.1123 76.7406 81.8619 78.0124C80.6116 79.2841 80.2375 81.1967 80.9142 82.8583ZM81.2369 81.1566C81.2369 79.069 82.9008 77.3766 84.9534 77.3766C87.0052 77.3785 88.668 79.0698 88.6698 81.1566C88.6698 83.2443 87.0059 84.9366 84.9534 84.9366C82.9008 84.9366 81.2369 83.2443 81.2369 81.1566Z" fill="#093F68"/>
<ellipse id="Oval_3" cx="34.1617" cy="81.1566" rx="8.34403" ry="8.48667" fill="#080C20"/>
<path id="Shape_7" fill-rule="evenodd" clip-rule="evenodd" d="M26.1498 84.5278C27.4918 87.824 30.6541 89.9733 34.1618 89.9733C38.9483 89.9697 42.8281 86.025 42.8335 81.1567C42.8349 77.589 40.7229 74.3719 37.4826 73.0057C34.2423 71.6394 30.5118 72.3932 28.0311 74.9155C25.5503 77.4377 24.8078 81.2316 26.1498 84.5278ZM26.1455 81.1567C26.1455 76.6537 29.7345 73.0033 34.1618 73.0033V73C38.5888 73.0037 42.1763 76.6539 42.1781 81.1567C42.1781 85.6596 38.589 89.31 34.1618 89.31C29.7345 89.31 26.1455 85.6596 26.1455 81.1567Z" fill="#093F68"/>
<ellipse id="Oval_4" cx="34.1616" cy="81.1567" rx="4.0442" ry="4.11333" fill="#093F68"/>
<path id="Shape_8" fill-rule="evenodd" clip-rule="evenodd" d="M29.7898 81.1567C29.7898 83.6125 31.7472 85.6034 34.1617 85.6034C36.5748 85.5997 38.5301 83.611 38.5337 81.1567C38.5337 78.7009 36.5763 76.71 34.1617 76.71C31.7472 76.71 29.7898 78.7009 29.7898 81.1567ZM30.4453 81.1567C30.4453 79.0691 32.1092 77.3767 34.1617 77.3767C36.2135 77.3785 37.8764 79.0698 37.8782 81.1567C37.8782 83.2443 36.2143 84.9367 34.1617 84.9367C32.1092 84.9367 30.4453 83.2443 30.4453 81.1567Z" fill="#093F68"/>
<path id="Path_4" d="M48.464 53.52V64.4367H24.0972C24.277 63.7206 24.5048 63.0178 24.7788 62.3334L28.3216 53.5234L48.464 53.52Z" fill="#080C20"/>
<path id="Shape_9" fill-rule="evenodd" clip-rule="evenodd" d="M24.1004 64.77H48.4639C48.6449 64.77 48.7917 64.6207 48.7917 64.4367V53.52C48.7917 53.3359 48.6449 53.1867 48.4639 53.1867H28.3117C28.1782 53.186 28.0577 53.2677 28.0069 53.3933L24.4642 62.2033C24.1857 62.9031 23.9546 63.6214 23.7727 64.3533C23.7468 64.455 23.7695 64.5631 23.834 64.6451C23.8985 64.727 23.9972 64.7733 24.1004 64.77ZM48.1362 64.1033H24.5396H24.5264C24.681 63.5444 24.8659 62.9947 25.0803 62.4567L28.5379 53.8533H48.1362V64.1033Z" fill="#093F68"/>
<path id="Path_5" d="M82.6134 64.4367H52.4622V53.52H71.1789L79.8146 62.54C80.6045 63.3672 81.5586 64.0138 82.6134 64.4367Z" fill="#080C20"/>
<path id="Shape_10" fill-rule="evenodd" clip-rule="evenodd" d="M82.6004 64.77H82.602C82.7588 64.7696 82.8935 64.6562 82.9231 64.4994C82.9527 64.3421 82.8681 64.1855 82.7217 64.1266C81.7145 63.7176 80.8033 63.0975 80.0474 62.3066L71.4117 53.2866C71.3504 53.223 71.2666 53.187 71.179 53.1866H52.4623C52.2813 53.1866 52.1345 53.3359 52.1345 53.52V64.4366C52.1345 64.6207 52.2813 64.77 52.4623 64.77H82.6004ZM81.237 64.1033H52.79L52.8096 53.8533H71.061L79.5984 62.77C80.0873 63.2828 80.6379 63.7307 81.237 64.1033Z" fill="#093F68"/>
<path id="Path_6" d="M74.2924 78.4967H45.5799C45.3989 78.4967 45.2522 78.3474 45.2522 78.1634C45.2522 77.9793 45.3989 77.83 45.5799 77.83H74.2793C74.4603 77.83 74.6071 77.9793 74.6071 78.1634C74.6071 78.3474 74.4603 78.4967 74.2793 78.4967H74.2924Z" fill="#093F68"/>
<path id="Path_7" d="M50.263 77.0967C50.082 77.0967 49.9353 76.9474 49.9353 76.7633V66.1967C49.9353 66.0126 50.082 65.8633 50.263 65.8633C50.444 65.8633 50.5908 66.0126 50.5908 66.1967V76.7633C50.5908 76.9474 50.444 77.0967 50.263 77.0967Z" fill="#093F68"/>
<path id="Path_8" d="M58.0336 68.28H54.4908C54.3098 68.28 54.1631 68.1308 54.1631 67.9467C54.1631 67.7626 54.3098 67.6133 54.4908 67.6133H58.0336C58.2146 67.6133 58.3613 67.7626 58.3613 67.9467C58.3613 68.1308 58.2146 68.28 58.0336 68.28Z" fill="#093F68"/>
<path id="Path_9" d="M46.0354 68.28H42.5057C42.3247 68.28 42.178 68.1308 42.178 67.9467C42.178 67.7626 42.3247 67.6133 42.5057 67.6133H46.0354C46.2164 67.6133 46.3631 67.7626 46.3631 67.9467C46.3631 68.1308 46.2164 68.28 46.0354 68.28Z" fill="#093F68"/>
<rect id="Rectangle_3" x="21.7734" y="67.07" width="1.89429" height="5.60333" fill="#080C20"/>
<path id="Shape_11" fill-rule="evenodd" clip-rule="evenodd" d="M21.7735 73H23.6678C23.8488 73 23.9955 72.8508 23.9955 72.6667V67.07C23.9955 66.8859 23.8488 66.7367 23.6678 66.7367H21.7735C21.5925 66.7367 21.4458 66.8859 21.4458 67.07V72.6667C21.4458 72.8508 21.5925 73 21.7735 73ZM23.3401 72.3334H22.1013V67.4034H23.3401V72.3334Z" fill="#093F68"/>
<path id="Path_10" d="M96.0505 72.09H93.2976C92.5464 72.09 91.9375 71.4707 91.9375 70.7067V68.42C91.9375 67.656 92.5464 67.0367 93.2976 67.0367H95.3131C95.4848 67.3928 95.5956 67.7761 95.6409 68.17L96.0505 72.09Z" fill="#080C20"/>
<path id="Shape_12" fill-rule="evenodd" clip-rule="evenodd" d="M93.2974 72.4233H96.0504C96.144 72.424 96.2334 72.384 96.2962 72.3133C96.3578 72.2433 96.3876 72.1501 96.3781 72.0566L95.9521 68.1333C95.9093 67.7027 95.7928 67.2831 95.6079 66.8933C95.5537 66.7775 95.439 66.7037 95.313 66.7033H93.2974C92.366 66.7051 91.6114 67.4726 91.6096 68.42V70.7066C91.6114 71.654 92.366 72.4215 93.2974 72.4233ZM92.2749 68.42C92.2749 67.8401 92.7371 67.37 93.3073 67.37H95.1098C95.2126 67.6377 95.2809 67.9178 95.313 68.2033L95.6866 71.7566H93.3073C92.7371 71.7566 92.2749 71.2865 92.2749 70.7066V68.42Z" fill="#093F68"/>
<path id="Path_11" d="M30.596 62.4066C30.4929 62.4066 30.3958 62.3572 30.3339 62.2733C30.2817 62.2026 30.2593 62.1137 30.2716 62.0262C30.2839 61.9387 30.3299 61.8597 30.3994 61.8066L38.6648 55.5033C38.7343 55.4503 38.8217 55.4275 38.9078 55.44C38.9938 55.4525 39.0715 55.4993 39.1236 55.57C39.1758 55.6407 39.1982 55.7296 39.1859 55.8171C39.1736 55.9046 39.1276 55.9836 39.0581 56.0366L30.7927 62.3333C30.7368 62.379 30.6677 62.4047 30.596 62.4066Z" fill="#093F68"/>
<path id="Path_12" d="M40.1526 61.3867C40.0133 61.3873 39.8888 61.2982 39.8423 61.1645C39.7958 61.0309 39.8375 60.882 39.9462 60.7933L45.8289 55.89C45.8962 55.8337 45.9828 55.807 46.0695 55.8157C46.1562 55.8245 46.2359 55.868 46.291 55.9367C46.3464 56.0051 46.3727 56.0932 46.364 56.1813C46.3554 56.2695 46.3127 56.3506 46.2451 56.4067L40.3624 61.31C40.3034 61.3597 40.2292 61.3868 40.1526 61.3867Z" fill="#093F68"/>
<path id="Path_13" d="M56.2541 62.4067C56.1621 62.4073 56.0741 62.3686 56.0116 62.3C55.9525 62.2344 55.9216 62.1474 55.9259 62.0585C55.9302 61.9696 55.9693 61.8861 56.0345 61.8267L63.6051 54.7634C63.739 54.6391 63.9467 54.6488 64.0688 54.785C64.191 54.9213 64.1815 55.1324 64.0475 55.2567L56.477 62.3334C56.4141 62.3849 56.3347 62.411 56.2541 62.4067Z" fill="#093F68"/>
<path id="Path_14" d="M66.3252 61.3866C66.2388 61.3854 66.1563 61.3494 66.0958 61.2866C65.9687 61.1566 65.9687 60.9466 66.0958 60.8166L69.7008 57.15C69.8287 57.0207 70.0351 57.0207 70.1629 57.15C70.29 57.28 70.29 57.49 70.1629 57.62L66.5579 61.2866C66.4966 61.3503 66.4128 61.3863 66.3252 61.3866Z" fill="#093F68"/>
<path id="Shape_13" fill-rule="evenodd" clip-rule="evenodd" d="M34.1091 50H63.8278C63.9281 49.9961 64.021 49.9458 64.0802 49.8633C64.1419 49.7766 64.159 49.665 64.126 49.5633L62.7102 45.1467C62.6663 45.0096 62.5407 44.9168 62.3989 44.9167H35.5249C35.3772 44.9093 35.2429 45.0035 35.1972 45.1467L33.7814 49.5633C33.7478 49.6676 33.7669 49.7821 33.8324 49.8693C33.8978 49.9566 34.0014 50.0054 34.1091 50ZM63.3788 49.3333H34.568L35.7707 45.5833H62.176L63.3788 49.3333Z" fill="#093F68"/>
<rect id="Rectangle_4" x="42.45" y="34.36" width="14.2497" height="5.41333" fill="#080C20"/>
<path id="Shape_14" fill-rule="evenodd" clip-rule="evenodd" d="M42.45 40.1067H56.6965C56.8775 40.1067 57.0242 39.9574 57.0242 39.7733V34.36C57.0242 34.1759 56.8775 34.0267 56.6965 34.0267H42.45C42.269 34.0267 42.1223 34.1759 42.1223 34.36V39.7733C42.1223 39.9574 42.269 40.1067 42.45 40.1067ZM56.3688 39.44H42.7778V34.6933H56.3688V39.44Z" fill="#093F68"/>
<path id="Path_15" d="M42.9089 50C42.8774 50.0047 42.8454 50.0047 42.8138 50C42.6414 49.947 42.5433 49.7624 42.5943 49.5866L47.0711 34.2533C47.1232 34.0779 47.3047 33.9782 47.4775 34.03C47.6512 34.0815 47.751 34.2666 47.7003 34.4433L43.2235 49.7766C43.1769 49.9123 43.0501 50.0023 42.9089 50Z" fill="#093F68"/>
<path id="Path_16" d="M56.4442 50C56.2937 50.0061 56.1585 49.9071 56.1165 49.76L51.7511 34.4267C51.7025 34.251 51.8018 34.0683 51.9739 34.0167C52.0574 33.9919 52.1471 34.0019 52.2233 34.0444C52.2995 34.0869 52.356 34.1585 52.3803 34.2434L56.7457 49.5767C56.7964 49.7534 56.6966 49.9385 56.5229 49.99C56.4972 49.9971 56.4708 50.0005 56.4442 50Z" fill="#093F68"/>
<path id="Path_17" d="M41.5029 41.45H39.838C39.657 41.45 39.5103 41.3008 39.5103 41.1167C39.5103 40.9326 39.657 40.7833 39.838 40.7833H41.5029C41.6839 40.7833 41.8306 40.9326 41.8306 41.1167C41.8306 41.3008 41.6839 41.45 41.5029 41.45Z" fill="#093F68"/>
<path id="Path_18" d="M44.5967 35.9634H43.5643C43.3833 35.9634 43.2366 35.8141 43.2366 35.63C43.2366 35.4459 43.3833 35.2967 43.5643 35.2967H44.5967C44.7777 35.2967 44.9244 35.4459 44.9244 35.63C44.9244 35.8141 44.7777 35.9634 44.5967 35.9634Z" fill="#093F68"/>
</g>
</g>
</g>
</svg>
