<svg width="120" height="123" viewBox="0 0 120 123" fill="none" xmlns="http://www.w3.org/2000/svg">
<g id="Group 9">
<g id="Group 7">
<rect id="Rectangle" width="120" height="123" rx="45" fill="#093F68"/>
</g>
<g id="money_jar 2">
<g id="money_jar">
<path id="Path" d="M85.1711 46.6244C82.7293 43.6237 77.5782 43.4593 76.1864 38.9872C74.7946 34.515 75.1982 32.6201 75.1982 32.6201H44.8017C44.8017 32.6201 45.2135 34.5109 43.8135 38.9872C42.4135 43.4634 37.2705 43.6196 34.8288 46.6244C32.667 49.2879 32.667 53.2216 32.667 57.3896V85.0486C32.667 89.5249 34.7505 94.2313 39.6999 94.2313H80.2999C85.2411 94.2313 87.3329 89.5249 87.3329 85.0486V57.3896C87.3329 53.2216 87.3329 49.2879 85.1711 46.6244Z" fill="#080C20"/>
<path id="Shape" fill-rule="evenodd" clip-rule="evenodd" d="M39.7001 94.6424H80.3001C85.443 94.6424 87.7448 89.8209 87.786 85.0528V57.3937C87.786 53.1517 87.786 49.144 85.5336 46.3695C84.4936 45.0934 82.9982 44.3088 81.5511 43.5496L81.5436 43.5456C79.3942 42.4276 77.3807 41.3712 76.6024 38.868C75.2724 34.5808 75.6265 32.7023 75.6265 32.7023C75.6517 32.5801 75.6199 32.4531 75.5401 32.3571C75.4625 32.2616 75.3462 32.2058 75.223 32.205H44.8265C44.7014 32.2024 44.582 32.2568 44.5019 32.3528C44.4218 32.4487 44.3897 32.5758 44.4148 32.6982C44.4148 32.6985 44.4149 32.6989 44.415 32.6996C44.426 32.7617 44.7551 34.6293 43.4389 38.8639C42.6442 41.3671 40.6307 42.4235 38.4977 43.5415C38.4635 43.5597 38.4293 43.5778 38.3951 43.596C36.9779 44.3471 35.5249 45.1172 34.5077 46.3654C32.2554 49.1399 32.2554 53.1476 32.2554 57.3896V85.0486C32.2554 89.8209 34.5571 94.6424 39.7001 94.6424ZM44.2089 39.1064C45.2342 35.8098 45.3042 33.8738 45.2589 33.0312H74.766C74.7207 33.8738 74.7907 35.818 75.816 39.1064C76.6964 41.9362 78.9541 43.1204 81.139 44.2664L81.1442 44.2691C82.5813 45.0213 83.9442 45.7365 84.8748 46.8833C86.9336 49.4318 86.9336 53.2791 86.9336 57.3896V85.0486C86.9336 89.4139 84.8871 93.8203 80.3124 93.8203H39.7124C35.1501 93.8203 33.0913 89.4139 33.0913 85.0486V57.3896C33.0913 53.2956 33.0913 49.4318 35.1501 46.8833C36.0807 45.7365 37.4436 45.0213 38.8807 44.2691L38.8859 44.2664C41.0707 43.1204 43.3284 41.9362 44.2089 39.1064Z" fill="#093F68"/>
<path id="Shape_2" fill-rule="evenodd" clip-rule="evenodd" d="M39.6999 92.1761H80.2999C85.0708 92.1761 85.2694 85.9532 85.2977 85.0665C85.2981 85.054 85.2984 85.0426 85.2988 85.0322V57.3731C85.2988 53.5956 85.2988 50.0155 83.5982 47.9191C82.8776 47.0354 81.6629 46.3983 80.3741 45.7242L80.2865 45.6776C78.0537 44.4901 75.3118 43.032 74.2429 39.5955C73.7468 37.8348 73.4037 36.0346 73.2176 34.215C73.1925 34.0074 73.0153 33.8517 72.8058 33.8532H47.2352C47.0258 33.8517 46.8486 34.0074 46.8235 34.215C46.6329 36.0406 46.2843 37.8463 45.7817 39.612C44.6988 43.0935 41.8988 44.5609 39.6464 45.7406L39.6444 45.7417C38.3604 46.4154 37.1466 47.0523 36.4264 47.9356C34.7258 50.0155 34.7258 53.5956 34.7258 57.3896V85.0486C34.7258 85.7762 34.8617 92.1761 39.6999 92.1761ZM46.5682 39.838C47.0499 38.1484 47.3887 36.4215 47.5811 34.6753H72.4188C72.6112 36.4215 72.95 38.1484 73.4317 39.838C74.6176 43.6443 77.5823 45.2186 79.9705 46.4517C81.177 47.0847 82.3176 47.6848 82.9311 48.4371C84.4505 50.3073 84.4505 53.7477 84.4505 57.3896V85.0486C84.4505 85.694 84.3352 91.354 80.2999 91.354H39.6999C35.6647 91.354 35.5494 85.694 35.5494 85.0486V57.3896C35.5494 53.7477 35.5494 50.3073 37.0688 48.4371C37.6823 47.6848 38.8229 47.0847 40.0335 46.4517C40.0642 46.4353 40.095 46.4189 40.1259 46.4025C42.4937 45.1416 45.3976 43.5952 46.5682 39.838Z" fill="#093F68"/>
<path id="Path_2" d="M42.1416 28.6083H77.8581C79.6183 28.6083 81.0452 30.0327 81.0452 31.7898V33.845C81.0452 34.3149 80.8582 34.7655 80.5254 35.0977C80.1926 35.43 79.7412 35.6166 79.2705 35.6166H40.7293C40.2586 35.6166 39.8072 35.43 39.4744 35.0977C39.1416 34.7655 38.9546 34.3149 38.9546 33.845V31.7898C38.9546 30.0327 40.3815 28.6083 42.1416 28.6083Z" fill="#080C20"/>
<path id="Shape_3" fill-rule="evenodd" clip-rule="evenodd" d="M40.7294 36.04H79.2706C80.4782 36.04 81.4571 35.0628 81.4571 33.8574V31.8021C81.4548 29.819 79.8449 28.2119 77.8583 28.2096H42.1418C40.1552 28.2119 38.5452 29.819 38.543 31.8021V33.8574C38.543 35.0628 39.5219 36.04 40.7294 36.04ZM40.1794 29.8308C40.6998 29.3113 41.4057 29.0194 42.1418 29.0194H77.8583C79.391 29.0194 80.6336 30.2598 80.6336 31.7898V33.845C80.6336 34.5964 80.0233 35.2056 79.2706 35.2056H40.7294C39.9767 35.2056 39.3665 34.5964 39.3665 33.845V31.7898C39.3665 31.0551 39.6589 30.3504 40.1794 29.8308Z" fill="#093F68"/>
<rect id="Rectangle_2" x="41.3594" y="62.6263" width="24.5206" height="5.70117" rx="2.85058" fill="#3EE9E5"/>
<path id="Shape_4" fill-rule="evenodd" clip-rule="evenodd" d="M43.0066 68.7385H64.233C65.3701 68.7385 66.2919 67.8183 66.2919 66.6832V64.2704C66.2919 63.1354 65.3701 62.2152 64.233 62.2152H43.0066C41.8695 62.2152 40.9478 63.1354 40.9478 64.2704V66.6832C40.9478 67.8183 41.8695 68.7385 43.0066 68.7385ZM41.7713 64.2704C41.7713 63.5894 42.3243 63.0373 43.0066 63.0373H64.233C64.9153 63.0373 65.4683 63.5894 65.4683 64.2704V66.6832C65.4683 67.3643 64.9153 67.9164 64.233 67.9164H43.0066C42.3243 67.9164 41.7713 67.3643 41.7713 66.6832V64.2704Z" fill="#093F68"/>
<rect id="Rectangle_3" x="43.8752" y="68.3274" width="24.5206" height="5.70117" rx="2.85058" fill="#3EE9E5"/>
<path id="Shape_5" fill-rule="evenodd" clip-rule="evenodd" d="M45.5224 74.4478H66.7489C67.295 74.4478 67.8186 74.2313 68.2047 73.8459C68.5908 73.4605 68.8077 72.9377 68.8077 72.3926V69.9757C68.8077 68.8406 67.886 67.9205 66.7489 67.9205H45.5224C44.3854 67.9205 43.4636 68.8406 43.4636 69.9757V72.3926C43.4636 73.5277 44.3854 74.4478 45.5224 74.4478ZM44.2872 69.9757C44.2872 69.2947 44.8402 68.7426 45.5224 68.7426H66.7489C67.4312 68.7426 67.9842 69.2947 67.9842 69.9757V72.3926C67.9842 73.0737 67.4312 73.6258 66.7489 73.6258H45.5224C44.8402 73.6258 44.2872 73.0737 44.2872 72.3926V69.9757Z" fill="#093F68"/>
<rect id="Rectangle_4" x="65.1182" y="79.7462" width="24.5206" height="5.70117" rx="2.85058" transform="rotate(-180 65.1182 79.7462)" fill="#3EE9E5"/>
<path id="Shape_6" fill-rule="evenodd" clip-rule="evenodd" d="M42.2446 80.1572H63.4711C64.0185 80.1572 64.5435 79.9396 64.9298 79.5524C65.3162 79.1652 65.5321 78.6403 65.5299 78.0938V75.681C65.5299 74.5459 64.6081 73.6258 63.4711 73.6258H42.2446C41.1076 73.6258 40.1858 74.5459 40.1858 75.681V78.102C40.1858 79.2371 41.1076 80.1572 42.2446 80.1572ZM41.0093 75.681C41.0093 74.9999 41.5624 74.4478 42.2446 74.4478H63.4711C64.1533 74.4478 64.7064 74.9999 64.7064 75.681V78.0938C64.7064 78.7748 64.1533 79.3269 63.4711 79.3269H42.2446C41.5624 79.3269 41.0093 78.7748 41.0093 78.0938V75.681Z" fill="#093F68"/>
<rect id="Rectangle_5" x="61.6636" y="85.4474" width="24.5206" height="5.70117" rx="2.85058" transform="rotate(-180 61.6636 85.4474)" fill="#3EE9E5"/>
<path id="Shape_7" fill-rule="evenodd" clip-rule="evenodd" d="M38.79 85.8584H60C61.1371 85.8584 62.0588 84.9382 62.0588 83.8032V81.3904C62.0588 80.2553 61.1371 79.3351 60 79.3351H38.79C37.653 79.3351 36.7312 80.2553 36.7312 81.3904V83.8032C36.7312 84.9382 37.653 85.8584 38.79 85.8584ZM37.5383 81.3904C37.5383 80.7093 38.0913 80.1572 38.7736 80.1572H60C60.6823 80.1572 61.2353 80.7093 61.2353 81.3904V83.8032C61.2353 84.4842 60.6823 85.0363 60 85.0363H38.7736C38.0913 85.0363 37.5383 84.4842 37.5383 83.8032V81.3904Z" fill="#093F68"/>
<rect id="Rectangle_6" x="65.1182" y="91.1526" width="24.5206" height="5.70117" rx="2.85058" transform="rotate(-180 65.1182 91.1526)" fill="#3EE9E5"/>
<path id="Shape_8" fill-rule="evenodd" clip-rule="evenodd" d="M42.2446 91.5637H63.4711C64.6081 91.5637 65.5299 90.6435 65.5299 89.5085V87.0915C65.5299 85.9565 64.6081 85.0363 63.4711 85.0363H42.2446C41.1076 85.0363 40.1858 85.9565 40.1858 87.0915V89.5085C40.1858 90.6435 41.1076 91.5637 42.2446 91.5637ZM41.0093 87.0915C41.0093 86.4105 41.5624 85.8584 42.2446 85.8584H63.4711C64.1533 85.8584 64.7064 86.4105 64.7064 87.0915V89.5085C64.7064 90.1895 64.1533 90.7416 63.4711 90.7416H42.2446C41.5624 90.7416 41.0093 90.1895 41.0093 89.5085V87.0915Z" fill="#093F68"/>
<path id="Rectangle_7" d="M82.7573 67.7026C84.1902 68.3639 84.8147 70.0622 84.1516 71.4942L76.2617 88.5318C75.5998 89.9611 73.9053 90.5842 72.4751 89.9243C71.0422 89.263 70.4177 87.5646 71.0808 86.1326L78.9707 69.0951C79.6326 67.6658 81.3271 67.0426 82.7573 67.7026Z" fill="#3EE9E5"/>
<path id="Shape_9" fill-rule="evenodd" clip-rule="evenodd" d="M73.3948 90.7991C73.6646 90.9234 73.9582 90.9879 74.2553 90.9882C75.058 90.9886 75.7877 90.5233 76.1248 89.7962L85.0312 70.5635C85.2608 70.0686 85.2839 69.5029 85.0955 68.991C84.907 68.4791 84.5225 68.0629 84.0265 67.8342L81.8318 66.823C81.3361 66.5938 80.7694 66.5708 80.2565 66.7589C79.7437 66.947 79.3268 67.3309 79.0977 67.826L70.1912 87.0587C69.7159 88.0882 70.1654 89.3075 71.1959 89.7839L73.3948 90.7991ZM80.5553 67.5382C80.6867 67.4874 80.8262 67.4609 80.9671 67.4601C81.1478 67.4551 81.3275 67.4888 81.4942 67.5588L83.6889 68.5741C83.9886 68.7108 84.2211 68.9614 84.3348 69.2702C84.4485 69.579 84.4338 69.9203 84.2942 70.2182L75.3712 89.4509C75.2335 89.7494 74.9821 89.9806 74.6728 90.0933C74.3636 90.2059 74.0221 90.1907 73.7242 90.051L71.5295 89.0399C71.2439 88.8986 71.0241 88.6527 70.9159 88.3534C70.8002 88.0476 70.8136 87.708 70.953 87.4122L79.8595 68.1795C79.9969 67.8819 80.2473 67.6512 80.5553 67.5382Z" fill="#093F68"/>
<path id="Rectangle_8" d="M78.8695 63.077C80.2295 63.8776 80.6816 65.6298 79.8789 66.9885L70.3264 83.1577C69.5255 84.5134 67.7779 84.9644 66.4209 84.1655C65.061 83.3649 64.6088 81.6127 65.4115 80.254L74.964 64.0848C75.765 62.7291 77.5126 62.2781 78.8695 63.077Z" fill="#3EE9E5"/>
<path id="Shape_10" fill-rule="evenodd" clip-rule="evenodd" d="M67.2511 85.1309C67.5669 85.3162 67.9265 85.4141 68.2929 85.4145C69.0263 85.4225 69.7086 85.0405 70.0841 84.4115L80.8641 66.1612C81.1421 65.6919 81.2219 65.1316 81.086 64.6035C80.9501 64.0755 80.6096 63.6229 80.1393 63.3456L78.0558 62.1124C77.5857 61.8349 77.0244 61.7552 76.4954 61.8909C75.9664 62.0265 75.5131 62.3665 75.2352 62.8359L64.4388 81.0821C64.1611 81.5519 64.0818 82.1126 64.2186 82.6407C64.3553 83.1688 64.6967 83.621 65.1676 83.8977L67.2511 85.1309ZM76.6888 62.6879C76.7893 62.6601 76.8932 62.6463 76.9976 62.6468C77.2179 62.6476 77.434 62.7072 77.6235 62.8194L79.707 64.0526C79.9894 64.2187 80.1941 64.4901 80.2759 64.807C80.3578 65.1238 80.3102 65.4602 80.1435 65.742L69.3593 83.9923C69.1929 84.2742 68.921 84.4785 68.6036 84.5602C68.2862 84.6419 67.9493 84.5944 67.667 84.428L65.5876 83.1948C65.3052 83.0287 65.1005 82.7573 65.0186 82.4404C64.9368 82.1236 64.9844 81.7872 65.1511 81.5055L75.9311 63.2551C76.0981 62.9731 76.3708 62.769 76.6888 62.6879Z" fill="#093F68"/>
<ellipse id="Oval" cx="55.2112" cy="80.8766" rx="10.2776" ry="10.2596" fill="#3EE9E5"/>
<path id="Shape_11" fill-rule="evenodd" clip-rule="evenodd" d="M44.553 81.8768C45.0785 87.3653 49.7003 91.554 55.2235 91.5472C56.5702 91.5482 57.9048 91.2929 59.1558 90.795C64.2903 88.7631 67.0335 83.1656 65.4892 77.872C63.945 72.5784 58.62 69.3263 53.1955 70.364C47.771 71.4016 44.0276 76.3883 44.553 81.8768ZM45.4134 79.5404C46.0873 74.6501 50.2784 71.0098 55.2235 71.0198C58.5439 71.0264 61.639 72.6972 63.4624 75.4673C65.2859 78.2374 65.5939 81.7364 64.2823 84.7815C62.329 89.3164 57.3185 91.712 52.5545 90.3887C47.7904 89.0655 44.7395 84.4307 45.4134 79.5404Z" fill="#093F68"/>
<ellipse id="Oval_2" cx="55.2111" cy="80.8766" rx="7.84" ry="7.82626" fill="#3EE9E5"/>
<path id="Shape_12" fill-rule="evenodd" clip-rule="evenodd" d="M47.0669 81.9211C47.5827 86.023 51.0698 89.1045 55.2112 89.118C57.9448 89.1148 60.4999 87.7617 62.0354 85.504C63.571 83.2463 63.8881 80.3765 62.8823 77.839C61.3417 74.0016 57.186 71.9032 53.1765 72.938C49.167 73.9729 46.5511 77.8192 47.0669 81.9211ZM48.1355 78.6888C49.0896 75.5864 51.9574 73.467 55.208 73.4614C58.2542 73.4652 60.9909 75.3213 62.1165 78.1472C63.3088 81.1674 62.3898 84.6107 59.8501 86.6383C57.3105 88.6658 53.7435 88.804 51.0541 86.979C48.3647 85.154 47.1811 81.7921 48.1355 78.6888ZM55.208 73.4614C55.2091 73.4613 55.2101 73.4613 55.2112 73.4613H55.2029C55.2046 73.4613 55.2063 73.4613 55.208 73.4614Z" fill="#093F68"/>
<path id="Shape_13" fill-rule="evenodd" clip-rule="evenodd" d="M56.706 87.1039L56.3354 86.1708C56.2069 86.1848 56.0807 86.2011 55.9562 86.2172L55.9561 86.2172C55.7135 86.2485 55.4768 86.2791 55.2401 86.29C54.5411 86.3389 53.8461 86.1506 53.2677 85.7557C52.7799 85.4035 52.4086 84.914 52.2013 84.3499L54.0254 83.6265C54.3059 84.2658 54.9809 84.6381 55.6724 84.5349L54.6883 82.0686C54.5512 82.0809 54.414 82.0942 54.2768 82.1074L54.2766 82.1074C54.0021 82.1339 53.7275 82.1604 53.453 82.1796C53.012 82.2256 52.5664 82.1621 52.156 81.9946C51.7191 81.809 51.3528 81.4894 51.1101 81.0821C50.7888 80.5925 50.6105 80.0231 50.5954 79.4379C50.5712 78.5915 50.9277 77.7788 51.5672 77.2224C51.8289 77.0042 52.1039 76.8024 52.3907 76.6182L52.4895 76.5524L51.9995 75.3193L53.7042 74.6411L53.7536 74.7644C53.7874 74.8497 53.8214 74.9347 53.8554 75.0197C53.9622 75.2867 54.0685 75.5526 54.1654 75.8207C54.1983 75.9112 54.2354 75.9276 54.326 75.9112C54.9541 75.7914 55.6022 75.8296 56.2119 76.0222C56.8567 76.2316 57.4019 76.6705 57.7436 77.2553C57.81 77.3603 57.8672 77.469 57.9262 77.5814L57.9262 77.5814C57.9551 77.6362 57.9843 77.6919 58.0154 77.7485L56.1624 78.4802C55.9455 77.9687 55.4464 77.6334 54.8901 77.6252L55.8083 79.9312L56.0266 79.8983C56.5696 79.7991 57.1222 79.7619 57.6736 79.7873C58.5031 79.8081 59.2543 80.2817 59.6295 81.0204C60.3551 82.2665 60.079 83.8528 58.9748 84.7815C58.7785 84.9526 58.5673 85.1071 58.3499 85.266L58.3499 85.2661C58.2436 85.3438 58.1359 85.4226 58.0277 85.5049L58.386 86.4051L56.706 87.1039ZM56.5536 81.7357L57.406 83.8813C57.6668 83.7322 57.8819 83.5147 58.0277 83.2524C58.1789 82.9781 58.1948 82.6495 58.0708 82.362C57.9469 82.0744 57.697 81.86 57.3936 81.7809C57.1119 81.7505 56.8287 81.7354 56.5454 81.7357H56.5536ZM53.1319 78.1472L53.9554 80.2025C53.8626 80.2025 53.7721 80.2061 53.6834 80.2096C53.54 80.2153 53.401 80.2208 53.2636 80.2107C52.9432 80.1561 52.6716 79.9446 52.5406 79.6476C52.4097 79.3506 52.4369 79.0078 52.613 78.735C52.7742 78.5291 52.9475 78.3328 53.1319 78.1472Z" fill="#093F68"/>
</g>
</g>
</g>
</svg>
