<svg width="120" height="124" viewBox="0 0 120 124" fill="none" xmlns="http://www.w3.org/2000/svg">
<g id="Group 7">
<rect id="Rectangle" width="120" height="124" rx="45" fill="#093F68"/>
<g id="easter_egg_ 3">
<g id="easter_egg_ 2">
<g id="easter_egg_">
<path id="Path" d="M82.5395 71.3505C82.5464 73.2123 82.3938 75.0713 82.0835 76.9075C81.5708 80.1225 80.4213 83.2053 78.701 85.9785C74.0463 93.3419 65.6747 96.8645 56.5129 96.8645C47.351 96.8645 38.9708 93.3419 34.316 85.9785C33.6145 84.8695 33.0144 83.7007 32.5227 82.486C32.0562 81.3684 31.6731 80.2183 31.3764 79.0452C31.2114 78.3613 31.0551 77.6559 30.9422 76.929C30.6392 75.0922 30.4939 73.2332 30.508 71.372C30.5204 68.3626 30.8685 65.3638 31.5458 62.4301C31.8106 61.2086 32.1363 59.9785 32.5097 58.7527C33.1535 56.5966 33.9204 54.4785 34.8067 52.4086C39.9087 40.4516 48.671 30.172 56.5085 30.172C62.8567 30.172 69.8475 36.9462 74.9755 45.9054C75.8092 47.3634 76.5995 48.8731 77.3159 50.4258C77.6242 51.0753 77.9195 51.7376 78.206 52.4C79.0885 54.4685 79.8553 56.5835 80.503 58.7355C81.7859 62.8227 82.4717 67.0708 82.5395 71.3505Z" fill="#080C20"/>
<path id="Shape" fill-rule="evenodd" clip-rule="evenodd" d="M33.9297 86.2064C38.3847 93.2516 46.6043 97.2946 56.4869 97.2946C66.3913 97.2946 74.6109 93.2516 79.0659 86.2064C80.8158 83.3858 81.986 80.2505 82.5092 76.9806C82.8246 75.1203 82.98 73.2369 82.9738 71.3505C82.8963 67.0301 82.1884 62.7434 80.8722 58.6236C80.2227 56.4551 79.4515 54.3242 78.5622 52.2409V52.215C78.2843 51.5355 77.9847 50.8559 77.6938 50.2452C76.9904 48.7312 76.2088 47.2 75.3404 45.6946C69.6175 35.7032 62.5659 29.7419 56.4869 29.7419C47.9113 29.7419 39.0273 41.4193 34.4073 52.2495C33.5154 54.3338 32.7428 56.4662 32.093 58.6366C31.7109 59.9097 31.3809 61.157 31.1204 62.3441C30.4285 65.298 30.066 68.3182 30.0392 71.3505C30.0328 73.2355 30.1882 75.1175 30.5038 76.9763C30.5993 77.6645 30.7469 78.3656 30.938 79.1269C31.236 80.3265 31.6235 81.5024 32.0973 82.6452C32.6005 83.8836 33.2137 85.0754 33.9297 86.2064ZM35.2106 52.5935C40.7077 39.6602 49.4658 30.6279 56.4869 30.6279V30.6021C62.1838 30.6021 69.1181 36.5634 74.6196 46.129C75.4706 47.6129 76.2522 49.1269 76.9469 50.6236C77.2292 51.2301 77.5244 51.8882 77.8154 52.5806V52.6064C78.6904 54.6534 79.45 56.747 80.0906 58.8774C81.361 62.9183 82.0395 67.1188 82.1054 71.3505C82.1171 73.1873 81.9719 75.0219 81.6712 76.8344C81.1562 79.9964 80.0156 83.0265 78.3147 85.7505C74.0204 92.5419 66.0396 96.4344 56.4869 96.4344C46.9343 96.4344 38.9752 92.5376 34.6592 85.772C33.9726 84.6775 33.3828 83.5263 32.8963 82.3312C32.4407 81.2253 32.0663 80.0883 31.776 78.929C31.598 78.1935 31.4547 77.5097 31.3418 76.843C31.0411 75.0305 30.8959 73.1959 30.9076 71.3591C30.9338 68.3891 31.2891 65.4309 31.9671 62.5376C32.2276 61.3677 32.5489 60.1419 32.9223 58.8903C33.5654 56.7506 34.3294 54.6483 35.2106 52.5935Z" fill="#093F68"/>
<path id="Path_2" d="M75.0145 46C75.5138 47.1613 74.2763 51.3505 74.2242 52.7484C74.0571 55.4398 73.744 58.1204 73.2863 60.7785C73.2282 61.5279 73.0216 62.2587 72.6784 62.929C72.3152 63.5984 71.5949 64.0003 70.8287 63.9613C69.8778 63.8366 69.3046 62.8387 69.1222 61.9097C68.9399 60.9806 69.0137 59.9914 68.6576 59.114C68.3016 58.2366 67.2551 57.5097 66.3954 57.9355C66.042 58.1471 65.7607 58.4587 65.5878 58.8301C64.8974 60.0903 64.6673 61.5398 64.4458 62.9548C63.6946 67.7978 62.1054 73.2086 62.418 78.0989C62.5179 79.686 62.8132 81.4323 61.0894 82.4258C59.3655 83.4194 57.5028 82.0559 56.7907 80.4903C56.1307 79.0452 56.1133 77.4064 55.7703 75.8581C55.297 73.7075 53.0434 67.9828 50.4425 71.6774C49.7738 72.628 49.5741 73.828 49.4134 74.9677C48.4568 81.7274 47.9188 88.5387 47.8025 95.3634C47.7765 96.9462 47.7417 98.6323 46.8473 99.9441C45.9528 101.256 43.8425 101.867 42.744 100.718C42.1013 100.047 42.0101 99.0366 41.958 98.1118C41.5238 90.4473 41.7062 82.5763 40.8204 74.9548C40.3037 70.5376 36.0441 63.514 31.5674 62.4387C31.8323 61.2172 32.1579 59.9871 32.5313 58.7613C33.1751 56.6052 33.942 54.4871 34.8283 52.4172C39.9086 40.4516 48.6709 30.172 56.5084 30.172C62.8566 30.172 69.8474 36.9462 74.9754 45.9054C75.8091 47.3634 76.5994 48.8731 77.3158 50.4258C76.4257 49.071 75.8351 47.4323 75.0145 46Z" fill="#3EE9E5"/>
<path id="Shape_2" fill-rule="evenodd" clip-rule="evenodd" d="M42.4097 101.015C42.8852 101.503 43.5449 101.771 44.2291 101.755L44.5026 101.746C45.5896 101.641 46.5759 101.07 47.2034 100.185C48.1804 98.757 48.2108 96.9591 48.2368 95.372C48.3547 88.5602 48.8927 81.7619 49.8477 75.015C50.0214 73.815 50.2125 72.7484 50.803 71.9097C51.3458 71.1398 51.8712 70.8043 52.3705 70.8989C53.6167 71.1484 54.9193 74.0344 55.3535 75.9355C55.4664 76.443 55.5446 76.972 55.6184 77.4839C55.7261 78.5543 55.9818 79.605 56.3783 80.6064C56.8682 81.7134 57.7962 82.5719 58.9445 82.9806C59.7259 83.2436 60.5845 83.154 61.2935 82.7355C63.0993 81.695 62.9697 79.8764 62.8655 78.4143L62.8654 78.4129L62.835 78.0129C62.6188 74.587 63.3496 70.8924 64.0589 67.3071L64.0681 67.2602C64.3634 65.772 64.6326 64.3269 64.8584 62.9591C64.8675 62.9038 64.8766 62.8484 64.8858 62.793C65.1021 61.4776 65.3235 60.1319 65.9526 58.9763C66.0845 58.6821 66.3003 58.4324 66.5735 58.2581C66.7942 58.1585 67.0476 58.1585 67.2683 58.2581C67.707 58.4419 68.0549 58.7896 68.2366 59.2258C68.4219 59.7597 68.5272 60.3176 68.5492 60.8817C68.5796 61.2258 68.6143 61.5828 68.6795 61.9398C68.8748 62.9419 69.5305 64.1763 70.7506 64.3355C71.689 64.3967 72.5781 63.9136 73.0302 63.0968C73.4062 62.3861 73.6351 61.6081 73.7033 60.8086L73.7034 60.8074C73.7642 60.3777 73.8249 59.948 73.89 59.5183C74.2708 57.2719 74.5216 55.0059 74.6412 52.7312C74.7204 51.9778 74.8436 51.2296 75.0102 50.4903C75.21 49.4839 75.3793 48.5978 75.4705 47.8495C75.5096 47.9269 75.5443 48 75.5791 48.0774C75.9744 48.9655 76.4269 49.8274 76.9338 50.6581C77.0568 50.8507 77.3101 50.9148 77.5113 50.8043C77.7112 50.6945 77.7909 50.45 77.6937 50.2452C76.9902 48.7312 76.2087 47.2 75.3402 45.6946C69.6173 35.7032 62.5658 29.7419 56.4868 29.7419C47.9112 29.7419 39.0272 41.4193 34.4072 52.2495C33.5153 54.3338 32.7426 56.4662 32.0929 58.6366C31.7108 59.9097 31.3808 61.157 31.1202 62.3484C31.0712 62.5758 31.2136 62.8006 31.4416 62.8559C35.8488 63.914 39.8956 70.9548 40.3689 75.0064C40.9291 79.8409 41.068 84.8731 41.1983 89.7333C41.2721 92.4946 41.3502 95.3505 41.5066 98.1333C41.5413 98.9548 41.6195 100.194 42.4097 101.015ZM41.2417 74.9075C40.7554 70.6452 36.7216 63.5914 32.0712 62.1333H32.0581C32.2929 61.1018 32.5948 60.0286 32.906 58.9221L32.9222 58.8645C33.5653 56.7248 34.3293 54.6225 35.2105 52.5677C40.7076 39.6344 49.4656 30.6021 56.4868 30.6021C62.1837 30.6021 69.118 36.5634 74.6108 46.1978C74.8843 46.8215 74.4762 48.886 74.1766 50.3914C73.9965 51.1736 73.8688 51.9667 73.7945 52.7656C73.6706 55.0084 73.4212 57.2426 73.0476 59.4581C73.0172 59.6731 72.9857 59.8882 72.9543 60.1032C72.9228 60.3183 72.8913 60.5333 72.8609 60.7484C72.8033 61.434 72.6147 62.1025 72.3051 62.7183C72.0258 63.2362 71.478 63.5565 70.8852 63.5484C70.1688 63.4366 69.6998 62.6064 69.5522 61.8279C69.4949 61.5033 69.4543 61.176 69.4306 60.8473C69.4034 60.1986 69.2775 59.5577 69.0572 58.9462C68.7854 58.2868 68.2561 57.7641 67.5896 57.4968C67.1394 57.3216 66.6358 57.3403 66.2001 57.5484C65.769 57.7988 65.424 58.172 65.2101 58.6193C64.4827 59.9453 64.2417 61.4783 64.0261 62.8498L64.0204 62.886C63.8033 64.2667 63.5254 65.6731 63.2301 67.157L63.2248 67.1839C62.5057 70.8271 61.763 74.5893 61.9883 78.1204L62.0143 78.529C62.1185 79.9398 62.2141 81.2731 60.8723 82.0516C60.3754 82.3444 59.7735 82.4058 59.2267 82.2193C58.3154 81.8812 57.5809 81.1925 57.1902 80.3097C56.8131 79.3672 56.5719 78.3768 56.4738 77.3677C56.3956 76.843 56.3131 76.2968 56.1959 75.7634C55.8963 74.4129 54.585 70.4688 52.5355 70.0645C51.6671 69.8968 50.8421 70.3527 50.0866 71.4236C49.3831 72.4215 49.1704 73.5914 48.9837 74.9032C48.0183 81.6811 47.4716 88.511 47.3467 95.3548C47.3467 96.8946 47.3076 98.486 46.4783 99.7032C45.9959 100.37 45.2483 100.801 44.4245 100.886C43.919 100.951 43.4118 100.779 43.0523 100.421C42.527 99.8753 42.4358 99.0064 42.3837 98.086C42.2317 95.3032 42.1535 92.4645 42.0797 89.7118L42.0756 89.563C41.9423 84.7276 41.8047 79.7354 41.2417 74.9075Z" fill="#093F68"/>
<path id="Rectangle_2" d="M72.3167 75.0274L75.8329 72.0589L78.5677 75.2375L75.0515 78.2059L72.3167 75.0274Z" fill="#080C20"/>
<path id="Shape_3" fill-rule="evenodd" clip-rule="evenodd" d="M74.7194 78.4774C74.8019 78.573 74.9225 78.628 75.0494 78.628C75.1529 78.628 75.253 78.5914 75.3316 78.5247L78.8487 75.557C78.9365 75.4833 78.9912 75.3781 79.0007 75.2645C79.0096 75.1503 78.9721 75.0373 78.8965 74.9505L76.161 71.772C76.0861 71.6853 75.9796 71.6317 75.8647 71.6228C75.7499 71.6139 75.6362 71.6506 75.5487 71.7247L72.036 74.6925C71.9482 74.7662 71.8935 74.8714 71.884 74.9849C71.8739 75.0986 71.9098 75.2115 71.9839 75.2989L74.7194 78.4774ZM75.0971 77.5914L72.9261 75.0667L75.7789 72.6581L77.9499 75.1828L75.0971 77.5914Z" fill="#093F68"/>
<path id="Path_3" d="M78.5663 75.2301L94.5279 62.4301C95.0873 61.9894 95.442 61.3426 95.5108 60.6379C95.5796 59.9333 95.3565 59.2311 94.8927 58.6925C94.4288 58.1544 93.7643 57.8258 93.0514 57.782C92.3384 57.7383 91.6381 57.983 91.1107 58.4602L75.8308 72.043L78.5663 75.2301Z" fill="#080C20"/>
<path id="Shape_4" fill-rule="evenodd" clip-rule="evenodd" d="M78.2364 75.5097C78.3189 75.6052 78.4395 75.6602 78.5664 75.6602C78.668 75.6558 78.7648 75.6162 78.8399 75.5484L94.7972 62.757C95.6778 62.0667 96.1076 60.9552 95.918 59.8588C95.7283 58.7624 94.9494 57.8561 93.887 57.4956C92.8246 57.1352 91.6483 57.3781 90.8198 58.129L75.5399 71.729C75.3631 71.8855 75.3457 72.1536 75.5009 72.3312L78.2364 75.5097ZM78.6098 74.6323L76.4388 72.0903L91.3886 58.7957C91.8301 58.397 92.4164 58.1936 93.0126 58.2323C93.9147 58.2954 94.6861 58.8987 94.9574 59.7534C95.2287 60.608 94.9447 61.54 94.2414 62.1032L78.6098 74.6323Z" fill="#093F68"/>
<path id="Rectangle_3" d="M70.7196 77.7279C70.1645 77.0827 70.2421 76.1087 70.8925 75.5596C71.5343 75.0178 72.4928 75.0942 73.0406 75.7309L74.4458 77.3642C75.001 78.0094 74.9233 78.9834 74.2729 79.5325C73.6311 80.0743 72.6726 79.9979 72.1248 79.3612L70.7196 77.7279Z" fill="#080C20"/>
<path id="Shape_5" fill-rule="evenodd" clip-rule="evenodd" d="M72.1618 80.0645C72.4263 80.371 72.8142 80.5458 73.2213 80.5419C73.5545 80.5462 73.8781 80.4317 74.1331 80.2194L75.0016 79.4796C75.2858 79.2439 75.4613 78.9039 75.4879 78.5376C75.5182 78.1719 75.3993 77.8095 75.1579 77.5312L72.9868 75.028C72.7476 74.7479 72.4051 74.5744 72.0359 74.5462C71.6672 74.5205 71.3029 74.6377 71.0199 74.8731L70.1514 75.6129C69.5653 76.1077 69.4935 76.9788 69.9908 77.5613L72.1618 80.0645ZM71.6017 75.5054C71.6982 75.4261 71.8193 75.3821 71.9447 75.3806L71.9838 75.3849C72.1241 75.3927 72.2548 75.4582 72.3442 75.5656L74.5152 78.0688C74.6065 78.1736 74.6519 78.3102 74.6413 78.4482C74.6307 78.5862 74.565 78.7144 74.4588 78.8043L73.5904 79.5441C73.4841 79.633 73.3471 79.6777 73.2083 79.6688C73.068 79.6575 72.9381 79.5909 72.8479 79.4839L70.6768 76.9806C70.5845 76.8768 70.539 76.74 70.5509 76.6022C70.5635 76.4645 70.6287 76.3368 70.7333 76.2452L71.6017 75.5054Z" fill="#093F68"/>
<path id="Path_4" d="M70.1427 76.1935L73.5425 80.1419C73.5425 80.1419 73.3515 81.7677 70.5031 83.4753C69.8081 83.8892 69.0823 84.2501 68.332 84.5548C63.3907 86.5806 60.425 83.1355 60.425 83.1355C63.3169 84.2796 64.2635 81.6 65.2014 78.7312L65.3186 78.3785C66.2782 75.3806 70.1427 76.1935 70.1427 76.1935Z" fill="#080C20"/>
<path id="Shape_6" fill-rule="evenodd" clip-rule="evenodd" d="M60.0821 83.4108C61.4494 84.8089 63.3275 85.6027 65.2926 85.6129C66.3905 85.6024 67.4754 85.3757 68.4841 84.9462C69.2544 84.6325 70.0004 84.2631 70.7159 83.8409C73.7207 82.043 73.9725 80.2624 73.9725 80.1892C73.985 80.0707 73.9472 79.9523 73.8683 79.8624L70.4684 75.9097C70.4083 75.8358 70.3237 75.7855 70.2296 75.7677C68.762 75.4581 65.7572 75.5828 64.8888 78.2366L64.7716 78.5979C64.2114 80.3183 63.5732 82.271 62.4095 82.8129C61.8138 83.0483 61.1447 83.0186 60.5728 82.7312C60.3871 82.6576 60.1747 82.7192 60.0583 82.8803C59.942 83.0415 59.9518 83.2605 60.0821 83.4108ZM68.1541 84.1505C65.3013 85.3247 63.1693 84.5763 61.9405 83.8194C62.2323 83.7937 62.5173 83.718 62.7829 83.5957C64.2916 82.8934 64.9826 80.7672 65.5928 78.8894L65.6009 78.8645L65.7182 78.5075C66.4737 76.1849 69.2439 76.4774 69.9126 76.5849L73.0693 80.2495C72.9217 80.6753 72.3572 81.8581 70.273 83.1054C69.5936 83.5049 68.8854 83.8542 68.1541 84.1505Z" fill="#093F68"/>
<path id="Path_5" d="M60.6812 79.871C60.879 80.3417 61.1296 80.7889 61.4281 81.2043C61.8102 81.6344 62.5787 81.5097 63.0346 81.2731C63.4991 81.0152 63.8904 80.6454 64.1723 80.1978C64.4675 79.7677 64.7063 79.2946 64.9973 78.8559C65.0361 78.7838 65.0948 78.7241 65.1666 78.6839C65.4141 78.5591 65.6442 78.9634 65.7094 79.1398C65.8157 79.4461 65.8856 79.7637 65.9178 80.086C65.9656 80.4258 66.0003 80.7656 66.035 81.1054C66.0248 81.2883 66.0529 81.4713 66.1175 81.643C66.1565 81.7172 66.2237 81.7729 66.3042 81.7978C66.3609 81.8075 66.4191 81.8031 66.4736 81.7849C66.7819 81.6688 67.0511 81.4753 67.3637 81.3849C67.6814 81.2598 68.0442 81.373 68.2321 81.6559C68.3494 81.9011 68.2321 82.1935 68.2712 82.4645C68.3111 82.7607 68.5241 83.0054 68.814 83.0882C69.0113 83.1257 69.2128 83.1373 69.4132 83.1226C69.8026 83.1334 70.1795 83.2609 70.4944 83.4882C69.7994 83.9021 69.0736 84.263 68.3233 84.5677C65.4944 85.7272 62.2426 85.1438 60.0038 83.0753C59.4718 82.5992 59.1505 81.9348 59.1094 81.2258" fill="#3EE9E5"/>
<path id="Path_6" d="M65.297 85.5699C63.219 85.5871 61.2149 84.8072 59.7044 83.3935C59.0886 82.8391 58.7187 82.0662 58.6753 81.243C58.6753 81.0055 58.8697 80.8129 59.1095 80.8129C59.3493 80.8129 59.5437 81.0055 59.5437 81.243C59.5854 81.8358 59.8578 82.3894 60.3036 82.7871C62.4207 84.7327 65.4914 85.271 68.1541 84.1634C68.6274 83.9699 69.0703 83.7677 69.4871 83.5527H69.244C69.0585 83.5661 68.8722 83.5486 68.6925 83.5011C68.2275 83.376 67.8846 82.9854 67.8241 82.5118C67.8047 82.3691 67.8047 82.2244 67.8241 82.0817C67.8403 81.995 67.8403 81.9061 67.8241 81.8194C67.7246 81.7481 67.5954 81.7319 67.4811 81.7763C67.3303 81.8248 67.1848 81.8882 67.0469 81.9656C66.906 82.0408 66.761 82.1082 66.6127 82.1677C66.4748 82.2217 66.3249 82.238 66.1785 82.2151C65.9836 82.1683 65.817 82.0438 65.7182 81.871C65.6157 81.6808 65.5662 81.467 65.5749 81.2516C65.5749 81.2129 65.5749 81.1785 65.5749 81.1484V80.9548C65.5445 80.6839 65.5185 80.4129 65.4794 80.1419C65.4475 79.8499 65.3864 79.5618 65.297 79.2817L65.2666 79.2172C65.1667 79.372 65.0756 79.5312 64.98 79.6903C64.8367 79.9355 64.6891 80.1892 64.5198 80.4301C64.1978 80.9395 63.7493 81.3586 63.2171 81.6473C62.5398 81.9957 61.5888 82.0473 61.0852 81.4796C60.8359 81.1787 60.6339 80.8423 60.486 80.4817C60.4208 80.3441 60.3557 80.2022 60.2819 80.0516C60.162 79.8426 60.2358 79.5768 60.4469 79.4581C60.6579 79.3393 60.9262 79.4125 61.0461 79.6215C61.1286 79.7763 61.2024 79.9312 61.2762 80.0903C61.3924 80.3715 61.5457 80.6361 61.7321 80.8774C61.9275 81.0925 62.4529 81.0366 62.822 80.8473C63.2198 80.6216 63.5542 80.3007 63.7946 79.914C63.9466 79.6946 64.0812 79.4839 64.2288 79.2215C64.3765 78.9591 64.485 78.7914 64.624 78.5763C64.7062 78.4411 64.823 78.3298 64.9627 78.2538C65.131 78.1783 65.324 78.1783 65.4924 78.2538C65.7804 78.4055 66.0004 78.6588 66.109 78.9634C66.2222 79.3015 66.2993 79.6503 66.3391 80.0043C66.3782 80.2839 66.4086 80.5677 66.439 80.8645V81.0538C66.439 81.1011 66.439 81.1527 66.439 81.2129C66.4414 81.2401 66.4414 81.2674 66.439 81.2946L66.6344 81.2C66.8202 81.0952 67.0167 81.0102 67.2206 80.9462C67.7383 80.7634 68.3139 80.9734 68.5883 81.4452C68.6819 81.668 68.7105 81.9124 68.6708 82.1505C68.6648 82.2278 68.6648 82.3055 68.6708 82.3828C68.6917 82.5071 68.7803 82.6097 68.901 82.6495C69.0003 82.6637 69.1012 82.6637 69.2006 82.6495H69.396C69.8631 82.6644 70.3158 82.8139 70.6986 83.0796C70.8175 83.1633 70.8861 83.3007 70.881 83.4452C70.8759 83.59 70.7976 83.7226 70.6725 83.7979C69.957 84.2201 69.211 84.5895 68.4407 84.9032C67.4466 85.3259 66.3787 85.5524 65.297 85.5699Z" fill="#093F68"/>
<path id="Path_7" d="M61.2327 91.1785C61.3152 90.1204 61.1284 88.4301 60.2557 87.6645C58.3669 86 57.0425 88.7527 56.9731 90.2452C56.8824 91.1383 57.103 92.0354 57.5983 92.7871C58.1264 93.5421 59.102 93.8495 59.9734 93.5355C60.8288 93.1613 61.1632 92.1075 61.2327 91.1785Z" fill="#3EE9E5"/>
<path id="Shape_7" fill-rule="evenodd" clip-rule="evenodd" d="M57.2511 93.0581C57.7312 93.712 58.493 94.1053 59.3092 94.1204C59.6013 94.1211 59.8901 94.0594 60.1559 93.9398C61.3327 93.4065 61.6062 92 61.667 91.2129C61.7625 89.9656 61.5237 88.2022 60.5424 87.3419C59.674 86.5763 58.9271 86.6495 58.4538 86.8516C57.2337 87.3591 56.5911 89.1699 56.539 90.2366C56.4358 91.2306 56.6878 92.229 57.2511 93.0581ZM58.7838 87.643C58.8801 87.5975 58.9855 87.574 59.0921 87.5742C59.4251 87.5983 59.7367 87.7457 59.9649 87.9871C60.6553 88.5935 60.8811 90.0516 60.7986 91.1484C60.7595 91.6301 60.5902 92.7957 59.7869 93.1613C59.1442 93.4538 58.3453 93.0753 57.9458 92.5419C57.5053 91.8731 57.3134 91.0732 57.4031 90.2796C57.4508 89.286 58.05 87.9484 58.7838 87.643Z" fill="#093F68"/>
<path id="Path_8" d="M46.196 38.172L53.9553 34.3312V27.0194L46.196 23.1699C44.1986 22.1806 41.7236 23.4323 41.7236 25.4409V35.9226C41.7236 37.914 44.1986 39.1613 46.196 38.172Z" fill="#080C20"/>
<path id="Shape_8" fill-rule="evenodd" clip-rule="evenodd" d="M42.7485 38.4043C43.3376 38.7626 44.0155 38.9517 44.7068 38.9505C45.2914 38.9514 45.8682 38.8174 46.3915 38.5591L54.1596 34.7269C54.3056 34.654 54.3979 34.5061 54.3984 34.3441V27.0323C54.3995 26.8688 54.307 26.7187 54.1596 26.6452L46.4002 22.8043C45.2396 22.2327 43.8641 22.2912 42.7572 22.9591C41.859 23.4707 41.3008 24.4146 41.2896 25.4409V35.9226C41.299 36.9471 41.8536 37.8906 42.7485 38.4043ZM43.2044 23.686C43.6557 23.4085 44.1756 23.2597 44.7068 23.2559C45.1589 23.2534 45.6052 23.3566 46.0094 23.557L53.5299 27.2817V34.0645L46.0094 37.7893C45.119 38.2288 44.0632 38.185 43.2131 37.6731C42.5735 37.3156 42.1723 36.6499 42.158 35.9226V25.4409C42.1689 24.7138 42.5668 24.0465 43.2044 23.686Z" fill="#093F68"/>
<path id="Path_9" d="M47.3424 33.6129C47.1309 33.6148 46.9487 33.4654 46.9112 33.2592C46.8736 33.053 46.9916 32.85 47.1904 32.7785L52.4791 30.7871L45.4709 29.1484C45.3158 29.113 45.1915 28.9984 45.1448 28.8477C45.0982 28.6969 45.1362 28.533 45.2447 28.4176C45.3532 28.3021 45.5155 28.2528 45.6707 28.2882L54.0553 30.2495C54.2418 30.2919 54.3783 30.4503 54.3913 30.6395C54.4043 30.8286 54.2908 31.0039 54.1117 31.071L47.4987 33.5656C47.4504 33.5919 47.3972 33.608 47.3424 33.6129Z" fill="#093F68"/>
<path id="Path_10" d="M66.8167 38.172L59.0574 34.3312V27.0193L66.8167 23.1742C68.8141 22.1849 71.2978 23.4366 71.2978 25.428V35.9226C71.2978 37.914 68.8141 39.1613 66.8167 38.172Z" fill="#080C20"/>
<path id="Shape_9" fill-rule="evenodd" clip-rule="evenodd" d="M66.6212 38.5591C67.1445 38.8174 67.7213 38.9514 68.306 38.9505C68.9971 38.9511 69.6749 38.762 70.2643 38.4043C71.1625 37.8927 71.7207 36.9488 71.7319 35.9226V25.4409C71.7253 24.41 71.1665 23.4601 70.2643 22.9462C69.1574 22.2783 67.7818 22.2198 66.6212 22.7914L58.8619 26.6323C58.7145 26.7058 58.6219 26.8558 58.6231 27.0194V34.3312C58.6236 34.4931 58.7159 34.6411 58.8619 34.714L66.6212 38.5591ZM67.012 37.7892L59.4915 34.0645V27.2989L67.012 23.5742C67.902 23.133 68.9587 23.1768 69.8083 23.6903C70.4479 24.0478 70.8492 24.7135 70.8635 25.4409V35.9226C70.8492 36.6499 70.4479 37.3156 69.8083 37.6731C68.9582 38.185 67.9024 38.2288 67.012 37.7892Z" fill="#093F68"/>
<path id="Path_11" d="M65.6703 33.6129C65.6167 33.6134 65.5635 33.6031 65.514 33.5828L58.901 31.0753C58.722 31.0082 58.6084 30.8329 58.6214 30.6438C58.6344 30.4546 58.7709 30.2962 58.9574 30.2538L67.342 28.2925C67.4972 28.2571 67.6595 28.3065 67.768 28.4219C67.8765 28.5373 67.9145 28.7012 67.8679 28.852C67.8212 29.0027 67.6969 29.1173 67.5418 29.1527L60.5336 30.7914L65.8223 32.7527C66.0212 32.8242 66.1391 33.0272 66.1015 33.2334C66.064 33.4396 65.8819 33.589 65.6703 33.5871V33.6129Z" fill="#093F68"/>
<rect id="Rectangle_4" x="53.1042" y="26.4301" width="6.79974" height="8.48172" rx="3.39987" fill="#080C20"/>
<path id="Shape_10" fill-rule="evenodd" clip-rule="evenodd" d="M54.8151 35.3333H58.2236C59.3941 35.3287 60.3437 34.3937 60.3556 33.2344V28.1118C60.3532 26.9465 59.4001 26.0024 58.2236 26H54.8151C53.6386 26.0024 52.6855 26.9465 52.6831 28.1118V33.2215C52.6879 34.3859 53.6396 35.3286 54.8151 35.3333ZM53.5385 28.1118C53.5409 27.4216 54.1052 26.8626 54.8021 26.8602H58.2236C58.9205 26.8626 59.4848 27.4216 59.4872 28.1118V33.2215C59.4848 33.9118 58.9205 34.4708 58.2236 34.4731H54.8021C54.1102 34.4708 53.548 33.9196 53.5385 33.2344V28.1118Z" fill="#093F68"/>
</g>
</g>
</g>
</g>
</svg>
