<svg width="120" height="124" viewBox="0 0 120 124" fill="none" xmlns="http://www.w3.org/2000/svg">
<g id="Group 10">
<rect id="Rectangle" width="120" height="124" rx="45" fill="#093F68"/>
<g id="cocktail_ 2">
<g id="cocktail_">
<path id="Path" d="M75.2138 97.1471L64.0592 89.7704V68.4105C64.0592 67.6619 63.4609 67.0551 62.7228 67.0551C61.9848 67.0551 61.3865 67.6619 61.3865 68.4105V89.7889L50.2319 97.1655L75.2138 97.1471Z" fill="#3EE9E5"/>
<path id="Shape" fill-rule="evenodd" clip-rule="evenodd" d="M50.2137 97.6081H75.2091C75.4104 97.6076 75.5874 97.4728 75.6441 97.2769C75.7008 97.081 75.6237 96.8706 75.4546 96.7598L64.4955 89.5399V68.4105C64.4955 67.4073 63.6937 66.594 62.7046 66.594C61.7155 66.594 60.9137 67.4073 60.9137 68.4105V89.5399L49.9682 96.7598C49.7991 96.8706 49.722 97.081 49.7787 97.2769C49.8354 97.4728 50.0124 97.6076 50.2137 97.6081ZM73.6818 96.686H51.7682L61.6364 90.1762C61.7647 90.0904 61.8417 89.9448 61.8409 89.7889V68.4105C61.8409 67.9165 62.2357 67.5161 62.7228 67.5161C63.2098 67.5161 63.6046 67.9165 63.6046 68.4105V89.7751C63.6038 89.9309 63.6808 90.0766 63.8091 90.1623L73.6818 96.686Z" fill="#093F68"/>
<ellipse id="Oval" cx="38.7501" cy="41.3844" rx="8.26818" ry="8.3863" fill="#080C20"/>
<path id="Shape_2" fill-rule="evenodd" clip-rule="evenodd" d="M30.6913 44.7701C32.0414 48.0762 35.2221 50.2317 38.7501 50.2317C43.5654 50.2267 47.4678 46.2685 47.4728 41.3844C47.4728 37.806 45.3476 34.5799 42.0881 33.2105C38.8287 31.8411 35.0769 32.5981 32.5822 35.1284C30.0875 37.6587 29.3412 41.4641 30.6913 44.7701ZM31.5308 38.3572C32.7399 35.3952 35.5893 33.4638 38.7501 33.4638V33.4545C43.0651 33.4596 46.5612 37.0077 46.5637 41.3844C46.5656 44.5903 44.663 47.4815 41.7434 48.7097C38.8238 49.9378 35.4622 49.2609 33.2266 46.9946C30.991 44.7284 30.3217 41.3192 31.5308 38.3572Z" fill="#093F68"/>
<path id="Path_2" d="M62.7227 70.9001L35.9272 39.3005H89.5182L62.7227 70.9001Z" fill="#080C20"/>
<path id="Shape_3" fill-rule="evenodd" clip-rule="evenodd" d="M62.3819 71.1998C62.4682 71.3022 62.5944 71.3612 62.7273 71.3612C62.8586 71.3598 62.9829 71.301 63.0682 71.1998L89.8637 39.6002C89.9796 39.4634 90.0062 39.2707 89.9319 39.1069C89.8573 38.9435 89.6958 38.839 89.5182 38.8395H35.9319C35.7543 38.839 35.5928 38.9435 35.5182 39.1069C35.4439 39.2707 35.4705 39.4634 35.5864 39.6002L62.3819 71.1998ZM62.7228 70.1901L36.9182 39.7616H88.5273L62.7228 70.1901Z" fill="#093F68"/>
<path id="Path_3" d="M42.3772 46.903L62.7227 70.9001L83.0681 46.903H42.3772Z" fill="#3EE9E5"/>
<path id="Shape_4" fill-rule="evenodd" clip-rule="evenodd" d="M62.3818 71.1998C62.4682 71.3022 62.5944 71.3612 62.7273 71.3612C62.8601 71.3612 62.9864 71.3022 63.0727 71.1998L83.4182 47.2027C83.5341 47.066 83.5607 46.8732 83.4864 46.7094C83.4118 46.546 83.2502 46.4416 83.0727 46.442H42.3818C42.2043 46.4416 42.0427 46.546 41.9682 46.7094C41.8938 46.8732 41.9205 47.066 42.0364 47.2027L62.3818 71.1998ZM62.7273 70.1901L43.3727 47.3871L82.0863 47.3641L62.7273 70.1901Z" fill="#093F68"/>
<path id="Path_4" d="M63.4863 67.4285C63.4007 67.4274 63.3172 67.4018 63.2454 67.3547C63.1435 67.2893 63.0714 67.1855 63.045 67.0662C63.0186 66.9469 63.04 66.8218 63.1045 66.7185L87.6045 27.2305C87.7388 27.0141 88.0206 26.9491 88.234 27.0853C88.4474 27.2215 88.5115 27.5074 88.3772 27.7238L63.8727 67.2118C63.7894 67.3469 63.6433 67.4288 63.4863 67.4285Z" fill="#093F68"/>
<ellipse id="Oval_2" cx="84.8137" cy="33.0027" rx="4.70455" ry="4.77175" fill="#080C20"/>
<path id="Shape_5" fill-rule="evenodd" clip-rule="evenodd" d="M79.6455 33.0027C79.648 35.8953 81.9619 38.2381 84.8137 38.2355C87.6644 38.2304 89.9728 35.885 89.9728 32.9935C89.9703 30.101 87.6564 27.7582 84.8046 27.7607C81.9528 27.7633 79.643 30.1102 79.6455 33.0027ZM80.8789 31.3503C81.5383 29.7367 83.0916 28.6855 84.8137 28.6874C87.1571 28.6925 89.0562 30.6167 89.0637 32.9935C89.0674 34.7401 88.0326 36.3168 86.4425 36.9874C84.8525 37.6579 83.0207 37.2902 81.8023 36.0557C80.584 34.8213 80.2195 32.9638 80.8789 31.3503Z" fill="#093F68"/>
<path id="Path_5" d="M82.2181 32.7445C82.1729 32.7515 82.127 32.7515 82.0818 32.7445C81.8421 32.6693 81.7079 32.4114 81.7818 32.1682C82.428 30.1991 84.4969 29.104 86.4591 29.6925C86.7101 29.751 86.8668 30.0049 86.8091 30.2595C86.7513 30.5142 86.501 30.6731 86.25 30.6145C83.4727 29.946 82.6818 32.3619 82.65 32.4587C82.5784 32.6356 82.4066 32.7493 82.2181 32.7445Z" fill="#093F68"/>
<path id="Shape_6" fill-rule="evenodd" clip-rule="evenodd" d="M60.3137 53.5282C60.3753 53.5556 60.4419 53.5697 60.5092 53.5697C60.5571 53.5703 60.6048 53.5625 60.6501 53.5466C60.7638 53.5062 60.8569 53.4216 60.9092 53.3115L64.6637 45.3493C64.771 45.1201 64.6755 44.8461 64.4501 44.7362L56.6046 40.9188C56.3787 40.81 56.1085 40.9068 56.0001 41.1354L52.2365 49.093C52.1897 49.2066 52.1897 49.3344 52.2365 49.448C52.2746 49.5632 52.3587 49.6569 52.4683 49.7062L60.3137 53.5282ZM60.2955 52.4954L53.2683 49.0745L56.641 41.9469L63.6683 45.3678L60.2955 52.4954Z" fill="#093F68"/>
<path id="Shape_7" fill-rule="evenodd" clip-rule="evenodd" d="M58.7999 63.3437C58.8688 63.5192 59.0364 63.6343 59.2226 63.6342C59.2863 63.6368 59.3498 63.6258 59.409 63.6019L65.4454 61.1814C65.6783 61.0892 65.7941 60.8235 65.7045 60.5867L63.3181 54.4595C63.2736 54.3457 63.1863 54.2545 63.0754 54.2061C62.9646 54.1577 62.8393 54.1559 62.7272 54.2013L56.6726 56.6171C56.5605 56.6623 56.4706 56.7508 56.4228 56.8633C56.3751 56.9757 56.3734 57.1028 56.4181 57.2165L58.7999 63.3437ZM59.4772 62.5738L57.4272 57.3087L62.6226 55.2294L64.6726 60.4945L59.4772 62.5738Z" fill="#093F68"/>
</g>
</g>
</g>
</svg>
